# xmcd CD database file
#
# Track frame offsets:
#	150
#	18059
#	29072
#	53655
#	89584
#	105536
#	121361
#	167591
#	204350
#	235021
#	261976
#	291923
#	324917
#
# Disc length: 4775 seconds
#
# Revision: 0
# Processed by: cddbd v1.5.2PL0 Copyright (c) Steve Scherf et al.
# Submitted via: CDex 1.70beta2
#
DISCID=ab12a50d
DTITLE=Stephen Bodian - Meditation For Dummies, 2E
DYEAR=2006
DGENRE=New Age
TTITLE0=CD Introduction
TTITLE1=Meditation It's Easier Than You Think
TTITLE2=Tuning in to Your Body
TTITLE3=Basic Mindfulness Meditation
TTITLE4=Finding a Sitting Posture That Works for You
TTITLE5=Walking Meditation
TTITLE6=Lovingkindness Meditation
TTITLE7=Transforming Suffering with Compassion
TTITLE8=Replacing Negative Patterns with Positive Energy
TTITLE9=Grounding Meditation
TTITLE10=Consulting the Guru Inside You
TTITLE11=Peaceful Place
TTITLE12=Data Track
EXTD=YEAR: 2006
EXTT0=
EXTT1=
EXTT2=
EXTT3=
EXTT4=
EXTT5=
EXTT6=
EXTT7=
EXTT8=
EXTT9=
EXTT10=
EXTT11=
EXTT12=
PLAYORDER=
